PathFileType	4	(X/Y/Z)	 s08c0402.trc
DataRate	CameraRate	NumFrames	NumMarkers	Units	OrigDataRate	OrigDataStartFrame	OrigNumFrames
200	200	4	50	mm	200	251	2000
Frame#	Time	racr			lacr			c7			jug			rlel			rdr			llel			ldr			s2			lic			ric			lasi			rasi			rpsi			lpsi			rgt			lgt			rth1			rth2			rth3			rth4			rlfc			rmfc			rsh1			rsh2			rsh3			rsh4			rlmal			rmmal			rcal			rtoe			rmt5			lth1			lth2			lth4			lth3			llfc			lmfc			llmal			lmmal			lcal			lmt5			lsh1			lsh2			lsh3			lsh4			ltoe			SBIKE			LBIKE			RBIKE			
		X1	Y1	Z1	X2	Y2	Z2	X3	Y3	Z3	X4	Y4	Z4	X5	Y5	Z5	X6	Y6	Z6	X7	Y7	Z7	X8	Y8	Z8	X9	Y9	Z9	X10	Y10	Z10	X11	Y11	Z11	X12	Y12	Z12	X13	Y13	Z13	X14	Y14	Z14	X15	Y15	Z15	X16	Y16	Z16	X17	Y17	Z17	X18	Y18	Z18	X19	Y19	Z19	X20	Y20	Z20	X21	Y21	Z21	X22	Y22	Z22	X23	Y23	Z23	X24	Y24	Z24	X25	Y25	Z25	X26	Y26	Z26	X27	Y27	Z27	X28	Y28	Z28	X29	Y29	Z29	X30	Y30	Z30	X31	Y31	Z31	X32	Y32	Z32	X33	Y33	Z33	X34	Y34	Z34	X35	Y35	Z35	X36	Y36	Z36	X37	Y37	Z37	X38	Y38	Z38	X39	Y39	Z39	X40	Y40	Z40	X41	Y41	Z41	X42	Y42	Z42	X43	Y43	Z43	X44	Y44	Z44	X45	Y45	Z45	X46	Y46	Z46	X47	Y47	Z47	X48	Y48	Z48	X49	Y49	Z49	X50	Y50	Z50	
251	1.2550	508.020737	1392.950187	-33.084573	524.602081	1404.788156	-393.196714	501.630309	1469.828332	-215.378171	482.864465	1315.461582	-211.887208	557.927687	1136.621761	28.022125	784.894225	937.492843	-42.526113	590.963632	1150.074871	-474.000782	788.791653	935.324249	-415.109208	-28.936016	1200.877715	-240.911219	149.533663	1179.384881	-375.413691	126.247117	1211.369115	-73.683132	167.311223	1125.479235	-342.471153	150.786905	1155.372828	-103.691602	-3.651148	1244.988409	-189.950716	8.085405	1241.018459	-285.225065	49.237533	1112.323235	-30.380479	72.922414	1064.850588	-411.105268	192.289505	1017.042106	-21.893180	278.386028	995.904848	-20.754448	341.123479	935.488037	-25.487291	295.727437	1027.006639	-32.939940	438.832956	863.091182	-43.293463	425.999785	852.972630	-155.464580	379.904574	745.546191	-17.427792	380.531803	657.276661	-37.185441	336.514340	583.214604	-45.653891	407.991779	655.340027	-67.860138	297.150214	471.904862	-59.220275	313.480291	496.820033	-145.295538	220.300216	434.134941	-103.836135	516.498459	458.429040	-97.140425	431.863225	416.568482	-31.902158	136.033793	942.741094	-419.659670	198.323475	881.240141	-418.888255	229.054961	898.856193	-408.283179	220.913184	795.233052	-418.737686	261.943917	671.557070	-393.680463	253.989709	649.276873	-287.191486	29.881621	323.729041	-392.900572	53.041504	340.087452	-308.027395	-45.815181	306.915282	-355.306304	153.276550	226.877587	-414.906933	194.298236	562.715643	-418.208912	163.368335	484.867569	-398.715207	99.040487	424.767037	-403.131594	180.864376	477.569088	-364.393245	236.978086	246.734648	-344.991368	-142.841027	940.558653	-221.040498	18.102349	84.147277	-425.942959	11.153621	80.217318	-27.476927	
252	1.2600	507.812173	1392.959788	-33.074689	524.476692	1404.748195	-393.248014	501.380615	1469.898139	-215.382216	482.661524	1315.487753	-211.809794	558.003361	1136.703187	28.002827	784.911551	937.501661	-42.555363	590.927018	1150.067212	-473.928087	788.772111	935.300425	-415.015444	-29.235635	1200.928357	-240.841036	149.201583	1179.470661	-375.306493	126.030858	1211.358545	-73.646955	166.989721	1125.525613	-342.514521	150.521477	1155.429610	-103.684728	-3.930102	1245.026407	-189.923114	7.837908	1241.087374	-285.212720	48.994939	1112.347427	-30.359413	72.544637	1064.937743	-411.096440	192.083777	1017.105756	-21.882064	278.158259	995.991396	-20.723059	340.881904	935.646034	-25.458876	295.721683	1027.093880	-32.657420	438.630506	863.233591	-43.253491	425.789429	853.116471	-155.397652	379.680177	745.726492	-17.397398	380.278353	657.411412	-37.177204	336.264674	583.389049	-45.628976	407.643967	655.464151	-67.921802	296.808288	472.097593	-59.196513	313.166105	496.984361	-145.296828	219.997513	434.290340	-103.874510	516.199567	458.891272	-97.169905	431.608464	416.947785	-31.896052	135.559094	942.726683	-419.652368	197.820270	881.143882	-418.821897	228.518247	898.719485	-408.162358	220.241712	795.109511	-418.639733	261.154345	671.318898	-393.515200	253.026441	649.085242	-287.514535	29.744363	323.071452	-392.920518	52.724218	339.565531	-307.977090	-45.927789	306.037466	-355.309285	153.390746	226.601963	-414.895212	193.652997	562.428518	-418.179600	162.922808	484.534539	-398.693698	98.694885	424.289447	-403.105910	180.412882	477.279803	-364.379963	237.063935	246.682698	-344.973870	-142.840298	940.544406	-221.044991	18.098535	84.150471	-425.918171	11.155351	80.218533	-27.482278	
253	1.2650	507.636447	1392.973083	-33.083679	524.310216	1404.666189	-393.197733	501.147448	1469.961319	-215.408903	482.444944	1315.520991	-211.763587	558.559819	1136.997113	28.529371	784.938693	937.516795	-42.574086	590.896606	1150.063565	-473.811461	788.738517	935.240174	-414.899008	-29.596263	1200.972183	-240.778985	148.864844	1179.559953	-375.254162	125.800835	1211.398345	-73.608038	166.658962	1125.576592	-342.520017	150.242848	1155.451238	-103.680103	-4.332047	1245.247916	-189.744637	7.512340	1241.146656	-285.166657	48.749542	1112.400280	-30.357313	72.146149	1064.971524	-411.075621	191.836649	1017.197621	-21.887082	277.901994	996.033929	-20.784458	340.674092	935.764652	-25.446530	295.473651	1027.189263	-32.623877	438.407162	863.426726	-43.213197	425.558894	853.259261	-155.354291	379.478712	745.928531	-17.352833	379.977980	657.620960	-37.296948	335.874282	583.696462	-45.570626	407.403922	655.737574	-67.921016	296.553262	472.293921	-59.192024	312.766807	497.323579	-145.575815	219.708653	434.453894	-103.901632	515.928748	459.271067	-97.167200	431.393418	417.347111	-31.910202	135.092983	942.728097	-419.673514	197.298363	881.062935	-418.737198	228.013384	898.550584	-408.060912	219.638782	794.980930	-418.528629	260.382634	671.123556	-393.404423	252.170983	648.847711	-287.466629	29.588765	322.437459	-392.892514	52.529279	338.949241	-307.980621	-46.074532	305.196311	-355.321611	153.509399	226.327148	-414.894493	193.062419	562.175237	-418.133928	162.433457	484.242133	-398.703415	98.327642	423.815104	-403.088584	179.963296	476.973196	-364.383190	237.076374	246.690029	-344.979427	-142.860552	940.539485	-221.064796	18.099047	84.157383	-425.927413	11.150571	80.183747	-27.491405	
254	1.2700	507.441978	1393.010213	-33.117819	524.126181	1404.586277	-393.151742	500.891768	1470.030064	-215.455799	482.246797	1315.548450	-211.746964	558.628709	1137.087271	28.533363	784.929670	937.537086	-42.559565	590.877735	1150.055168	-473.708064	788.700767	935.186158	-414.846760	-29.868024	1200.999180	-240.779240	148.551042	1179.656808	-375.351435	125.596710	1211.401446	-73.575007	166.300110	1125.616543	-342.506975	149.969004	1155.492962	-103.611552	-4.628495	1245.332955	-189.749790	7.252330	1241.187480	-285.147586	48.480761	1112.428886	-30.323577	71.787885	1065.033154	-411.044364	191.581010	1017.271714	-21.876944	277.674050	996.157432	-20.778745	340.481648	935.860612	-25.448671	295.221977	1027.301330	-32.605053	438.175173	863.623710	-43.230090	425.323771	853.424557	-155.308565	379.302213	746.162023	-17.326533	379.801720	657.846916	-37.276832	335.669998	583.931867	-45.602731	407.177584	655.948371	-67.917496	296.335962	472.543458	-59.209627	312.531555	497.548956	-145.561598	219.489714	434.650979	-103.935281	515.705443	459.523572	-97.177679	431.164272	417.626249	-31.929210	134.683408	942.716945	-419.701687	196.763172	880.998635	-418.680681	227.484058	898.426621	-407.948492	219.014306	794.840673	-418.420489	259.616635	670.998856	-393.322198	251.333725	648.668940	-287.351198	29.385406	321.793914	-392.865921	52.478552	338.359640	-308.007104	-46.229096	304.401503	-355.334747	153.582378	226.085961	-414.900154	192.510769	561.888331	-418.120538	161.934122	483.940026	-398.682611	97.938629	423.396587	-403.068266	179.460969	476.684535	-364.371026	237.091423	246.715775	-344.963022	-142.862468	940.524212	-221.065438	18.110374	84.140703	-425.937125	11.147383	80.217793	-27.482900	
